<?xml version="1.0" encoding="UTF-8"?>
<svg id="Layer_1" data-name="Layer 1" xmlns="http://www.w3.org/2000/svg" viewBox="0 0 216 216">
  <defs>
    <style>
      .cls-1 {
        fill: #51b688;
      }

      .cls-2 {
        fill: #96d2b1;
      }
    </style>
  </defs>
  <path class="cls-1" d="M102.3,50.08c0-2.21-.08-4.66,.01-7.1,.45-12.52,6.63-19.83,19.11-21.65,6.55-.96,13.25-1.2,19.88-1.2,18.25,.01,36.51,.32,54.76,.51,8.01,.09,9.14,1.2,9.14,9.4,0,21.11-.04,42.22-.06,63.33-.01,15.87,0,31.74-.03,47.62-.01,8.51-.88,9.38-9.59,9.38-18.64-.02-37.27-.25-55.91-.03-5.64,.07-11.4,.81-16.87,2.18-6.3,1.57-8.99,5.64-9.09,12.15-.13,7.99,.06,15.98-.07,23.96-.07,4.04-1.89,7.82-6.63,7.11-3.6-.54-6.15-3.14-9-5.14-11.69-8.23-25.46-11.79-39.64-12.2-12.94-.37-25.97,.25-38.92,.21-7.01-.02-8.54-1.46-8.54-8.23-.04-37.65-.04-75.31-.03-112.96,0-7.29,1.38-8.62,8.73-8.68,19.2-.16,38.41-.48,57.61-.35,8.1,.05,16.19,1.07,25.14,1.71Zm-.07,129.78s.17-94.57,.27-100.55c.26-15.58-2.97-18.81-19.13-19.87-2.08-.14-4.18-.12-6.27-.1-16.72,.19-33.45,.4-50.17,.63-1.46,.02-2.92,.25-4.4,.38,0,35.75,0,71.14,0,107.04,.98,.47,46.75,.69,51.56,1.03,18.61,1.29,28.14,11.65,28.15,11.44ZM193.79,31.43c-22.09,0-43.37-.01-64.66,.03-10.6-.03-15.59,5.86-15.6,14.59-.04,25.67-.04,89.78-.04,96.56,26.9-7.13,53.64-1.43,80.3-3.99V31.43Z"/>
  <path class="cls-2" d="M63.13,85.98c-6.27,0-12.55,.05-18.82-.01-3.85-.04-7.05-1.48-6.87-5.82,.16-3.87,3-5.33,6.77-5.31,12.54,.06,25.09,.03,37.63,.02,3.75,0,6.43,1.47,6.47,5.52,.04,4.13-2.82,5.52-6.45,5.57-6.25,.08-12.49,.02-18.74,.03Z"/>
  <path class="cls-2" d="M63.13,107.98c-6.27,0-12.55,.05-18.82-.01-3.85-.04-7.05-1.48-6.87-5.82,.16-3.87,3-5.33,6.77-5.31,12.54,.06,25.09,.03,37.63,.02,3.75,0,6.43,1.47,6.47,5.52,.04,4.13-2.82,5.52-6.45,5.57-6.25,.08-12.49,.02-18.74,.03Z"/>
  <path class="cls-2" d="M63.13,129.97c-6.27,0-12.55,.05-18.82-.01-3.85-.04-7.05-1.48-6.87-5.82,.16-3.87,3-5.33,6.77-5.31,12.54,.06,25.09,.03,37.63,.02,3.75,0,6.43,1.47,6.47,5.52,.04,4.13-2.82,5.52-6.45,5.57-6.25,.08-12.49,.02-18.74,.03Z"/>
  <path class="cls-2" d="M153.89,55.92c-6.27,0-12.55,.05-18.82-.01-3.85-.04-7.05-1.48-6.87-5.82,.16-3.87,3-5.33,6.77-5.31,12.54,.06,25.09,.03,37.63,.02,3.75,0,6.43,1.47,6.47,5.52,.04,4.13-2.82,5.52-6.45,5.57-6.25,.08-12.49,.02-18.74,.03Z"/>
  <path class="cls-2" d="M153.89,77.92c-6.27,0-12.55,.05-18.82-.01-3.85-.04-7.05-1.48-6.87-5.82,.16-3.87,3-5.33,6.77-5.31,12.54,.06,25.09,.03,37.63,.02,3.75,0,6.43,1.47,6.47,5.52,.04,4.13-2.82,5.52-6.45,5.57-6.25,.08-12.49,.02-18.74,.03Z"/>
  <path class="cls-2" d="M153.89,99.92c-6.27,0-12.55,.05-18.82-.01-3.85-.04-7.05-1.48-6.87-5.82,.16-3.87,3-5.33,6.77-5.31,12.54,.06,25.09,.03,37.63,.02,3.75,0,6.43,1.47,6.47,5.52,.04,4.13-2.82,5.52-6.45,5.57-6.25,.08-12.49,.02-18.74,.03Z"/>
</svg>